HIERARCHY
ROOT Hips
{
 OFFSET 0.000000 0.000000 0.000000
 CHANNELS 6 Xposition Yposition Zposition Yrotation Xrotation Zrotation
 JOINT Chest
 {
  OFFSET 0.000000 10.354800 0.006500
  CHANNELS 3 Yrotation Xrotation Zrotation
  JOINT Chest2
  {
   OFFSET 0.000000 10.435800 -0.013200
   CHANNELS 3 Yrotation Xrotation Zrotation
   JOINT Chest3
   {
    OFFSET 0.000000 10.393700 0.000000
    CHANNELS 3 Yrotation Xrotation Zrotation
    JOINT Chest4
    {
     OFFSET 0.000000 10.383100 0.000000
     CHANNELS 3 Yrotation Xrotation Zrotation
     JOINT Neck
     {
      OFFSET 0.000000 15.694000 0.000000
      CHANNELS 3 Yrotation Xrotation Zrotation
      JOINT Head
      {
       OFFSET 0.000000 9.711000 -0.028000
       CHANNELS 3 Yrotation Xrotation Zrotation
       End Site
       {
        OFFSET 0.000000 18.578700 -0.014800
       }
      }
     }
     JOINT RightCollar
     {
      OFFSET -3.157200 10.367500 0.000000
      CHANNELS 3 Yrotation Xrotation Zrotation
      JOINT RightShoulder
      {
       OFFSET -14.482500 0.000000 0.000000
       CHANNELS 3 Yrotation Xrotation Zrotation
       JOINT RightElbow
       {
        OFFSET 0.000000 -31.707800 0.000000
        CHANNELS 3 Yrotation Xrotation Zrotation
        JOINT RightWrist
        {
         OFFSET 0.000000 -25.659300 0.000000
         CHANNELS 3 Yrotation Xrotation Zrotation
         End Site
         {
          OFFSET 0.000000 -18.994300 0.000000
         }
        }
       }
      }
     }
     JOINT LeftCollar
     {
      OFFSET 3.157200 10.367500 0.000000
      CHANNELS 3 Yrotation Xrotation Zrotation
      JOINT LeftShoulder
      {
       OFFSET 14.482500 0.000000 0.000000
       CHANNELS 3 Yrotation Xrotation Zrotation
       JOINT LeftElbow
       {
        OFFSET 0.000000 -31.707800 0.000000
        CHANNELS 3 Yrotation Xrotation Zrotation
        JOINT LeftWrist
        {
         OFFSET 0.000000 -25.659300 0.000000
         CHANNELS 3 Yrotation Xrotation Zrotation
         End Site
         {
          OFFSET 0.000000 -18.994300 0.000000
         }
        }
       }
      }
     }
    }
   }
  }
 }
 JOINT RightHip
 {
  OFFSET -8.365600 -0.032100 -0.003200
  CHANNELS 3 Yrotation Xrotation Zrotation
  JOINT RightKnee
  {
   OFFSET 0.000000 -43.980000 0.003100
   CHANNELS 3 Yrotation Xrotation Zrotation
   JOINT RightAnkle
   {
    OFFSET 0.000000 -42.882800 0.005200
    CHANNELS 3 Yrotation Xrotation Zrotation
    JOINT RightToe
    {
     OFFSET 0.000000 -4.915500 10.826300
     CHANNELS 3 Yrotation Xrotation Zrotation
     End Site
     {
      OFFSET 0.000000 -1.517500 6.175900
     }
    }
   }
  }
 }
 JOINT LeftHip
 {
  OFFSET 8.365600 -0.032100 -0.003200
  CHANNELS 3 Yrotation Xrotation Zrotation
  JOINT LeftKnee
  {
   OFFSET 0.000000 -43.980000 0.003100
   CHANNELS 3 Yrotation Xrotation Zrotation
   JOINT LeftAnkle
   {
    OFFSET 0.000000 -42.882800 0.005200
    CHANNELS 3 Yrotation Xrotation Zrotation
    JOINT LeftToe
    {
     OFFSET 0.000000 -4.915500 10.826300
     CHANNELS 3 Yrotation Xrotation Zrotation
     End Site
     {
      OFFSET 0.000000 -1.517500 6.175900
     }
    }
   }
  }
 }
}
MOTION
Frames: 12
Frame Time: 0.008333
0.000000 91.618600 0.000000 0.000000 -5.767877 0.000000 0.000000 11.653817 0.000000 0.000000 -5.885947 0.000000 0.000000 -0.000000 0.000000 0.000000 -0.000000 0.000000 0.000000 12.528835 0.000000 0.000000 0.711642 0.000000 0.000000 -0.000000 0.000000 0.000000 0.000000 -90.000000 0.000000 -2.309062 0.000000 0.000000 2.309062 0.000000 0.000000 -0.000000 0.000000 0.000000 -0.000000 90.000000 0.000000 -2.309062 0.000000 0.000000 2.309062 0.000000 0.000000 8.520406 0.000000 0.000000 1.905762 0.000000 -0.000000 -4.658285 0.000000 0.000000 -0.000000 0.000000 0.000000 8.520406 0.000000 0.000000 1.905762 0.000000 -0.000000 -4.658285 0.000000 0.000000 -0.000000 0.000000
-11.128800 127.061483 21.272915 177.230277 -30.600316 -3.803940 0.590448 15.056280 1.113129 0.041047 1.380777 0.094170 0.085880 2.301200 0.154012 0.490619 13.455771 0.980364 -2.417781 23.537932 -3.873291 -1.785684 -0.266775 -3.606616 4.190238 7.202127 -3.989032 -8.586175 -14.992380 -4.091276 -172.968163 -59.718747 -175.436807 -11.954167 -18.946474 -31.590989 0.985363 11.397855 1.353631 26.690668 -4.311132 -5.448728 124.197108 -46.860923 -156.479171 25.350117 -24.718176 36.947992 9.693701 -51.824284 2.967280 -110.614950 81.455310 -104.174262 2.994460 -12.611101 -13.015584 0.006093 -0.000114 0.002766 -16.051035 -51.225314 7.500443 84.978063 81.426686 80.183748 -9.617176 -8.466856 -0.194342 0.010151 0.014851 0.004610
-11.129118 127.067040 21.271368 177.241571 -30.680994 -3.807453 0.610827 15.083994 1.110208 0.043376 1.382825 0.093626 0.074264 2.328285 0.158336 0.573018 13.412633 0.960721 -2.370759 23.563023 -3.847847 -1.704432 -0.273740 -3.618155 4.152799 7.228348 -3.951682 -8.601180 -14.927103 -4.109033 -172.420067 -59.729158 -175.779681 -12.091931 -18.426574 -31.191476 0.955380 11.416927 1.379068 26.632915 -4.268227 -5.450096 124.072387 -46.882878 -156.415452 25.367398 -24.676698 36.907033 9.686509 -51.742931 2.980105 -110.610556 81.439630 -104.170772 2.992711 -12.606844 -13.003577 0.004626 -0.003644 0.002100 -16.052293 -51.150133 7.463126 85.000351 81.418680 80.203095 -9.580678 -8.463528 -0.201717 0.011601 0.008269 0.005268
-11.131042 127.067911 21.278609 177.251561 -30.714370 -3.803950 0.666049 15.020869 1.099680 0.049073 1.386300 0.092952 0.074818 2.344608 0.160591 0.589800 13.443343 0.965224 -2.319388 23.562036 -3.836679 -1.636260 -0.287214 -3.627693 4.133922 7.230097 -3.929276 -8.612756 -14.860915 -4.128739 -171.821243 -59.743648 -176.161376 -12.232216 -17.903879 -30.769165 0.979720 11.375437 1.362203 26.532241 -4.217564 -5.373520 123.928537 -46.882611 -156.314217 25.386129 -24.630308 36.854597 9.689703 -51.709069 2.975550 -110.642438 81.413565 -104.223892 3.012621 -12.614978 -12.974597 -0.001904 0.000708 -0.000864 -16.060268 -51.123719 7.439292 85.003137 81.415826 80.206067 -9.569781 -8.459442 -0.213872 0.011994 0.007214 0.005446
-11.132318 127.070607 21.283627 177.250743 -30.769423 -3.798173 0.706557 15.030638 1.094436 0.052069 1.387961 0.092515 0.088876 2.336617 0.156552 0.574244 13.476480 0.976114 -2.244042 23.532046 -3.851235 -1.585840 -0.304390 -3.634513 4.161438 7.204311 -3.932994 -8.622368 -14.796408 -4.148528 -171.176310 -59.766158 -176.578128 -12.373769 -17.379439 -30.330204 1.020841 11.323569 1.337180 26.459702 -4.171365 -5.321765 123.867722 -46.889602 -156.280740 25.455219 -24.579534 36.807540 9.694515 -51.654557 2.980290 -110.672357 81.400035 -104.264885 3.024596 -12.620605 -12.959192 -0.003695 0.001232 -0.001678 -16.069519 -51.073427 7.409276 85.025375 81.395746 80.223278 -9.563865 -8.456077 -0.227626 0.004978 0.004726 0.002261
-11.133734 127.073053 21.289474 177.257989 -30.822035 -3.796186 0.735354 15.050594 1.090622 0.041954 1.399476 0.094678 0.117935 2.319717 0.150486 0.618729 13.474142 0.969831 -2.229876 23.525265 -3.841379 -1.555651 -0.323032 -3.638942 4.136522 7.195334 -3.911634 -8.630428 -14.732254 -4.169251 -170.476775 -59.796854 -177.034563 -12.514501 -16.853125 -29.883627 0.999696 11.303503 1.349610 26.411179 -4.114636 -5.317806 123.821992 -46.914541 -156.286073 25.523492 -24.539025 36.752147 9.698886 -51.601170 2.978924 -110.706329 81.399701 -104.298743 3.012924 -12.624870 -12.951015 -0.003589 0.000955 -0.001630 -16.063260 -51.022540 7.377851 85.015649 81.386712 80.213043 -9.576012 -8.455112 -0.229783 0.000968 0.005874 0.000439
-11.135217 127.075377 21.295748 177.278683 -30.872663 -3.800980 0.731379 15.091441 1.085951 0.090388 1.360941 0.084593 0.110910 2.332096 0.152551 0.666327 13.471083 0.962854 -2.233594 23.518560 -3.832484 -1.573928 -0.306545 -3.608721 4.109972 7.182121 -3.890826 -8.640829 -14.665734 -4.193230 -169.711343 -59.833095 -177.535355 -12.653293 -16.321798 -29.436975 0.988072 11.274545 1.367511 26.372949 -4.025819 -5.394833 123.607935 -46.959449 -156.203413 25.452149 -24.519664 36.670033 9.684674 -51.547509 2.978633 -110.749075 81.410490 -104.342726 3.003005 -12.626768 -12.948308 -0.003937 0.000354 -0.001788 -16.060456 -50.973877 7.345608 84.996052 81.382274 80.196697 -9.579547 -8.454322 -0.236163 0.000145 0.007431 0.000066
-11.136307 127.079174 21.299786 177.298648 -30.938918 -3.807047 0.765184 15.119710 1.086898 0.103746 1.349434 0.079730 0.104339 2.342869 0.154122 0.698453 13.474441 0.960834 -2.237572 23.506883 -3.833776 -1.588172 -0.290001 -3.580750 4.102682 7.163773 -3.881575 -8.684412 -14.602081 -4.189294 -168.907989 -59.879572 -178.026385 -12.800146 -15.780151 -28.985221 1.006351 11.232211 1.379257 26.295744 -3.956705 -5.398065 123.451016 -46.983117 -156.117361 25.383365 -24.520208 36.623823 9.665537 -51.477924 2.990594 -110.784968 81.419150 -104.380457 2.987992 -12.627462 -12.947582 -0.003391 -0.001427 -0.001539 -16.051104 -50.909190 7.307026 84.987936 81.379035 80.198859 -9.587976 -8.456431 -0.248494 0.000706 0.007915 0.000321
-11.136852 127.079352 21.310123 177.303880 -30.967001 -3.810135 0.854382 15.058749 1.090540 0.064622 1.392533 0.090554 0.081077 2.366909 0.159206 0.758699 13.453887 0.951487 -2.278135 23.523947 -3.815017 -1.566334 -0.329283 -3.613413 4.098045 7.150931 -3.874817 -8.689008 -14.538593 -4.224869 -168.083946 -59.927140 -178.587727 -12.966647 -15.218008 -28.520917 1.029743 11.188245 1.392893 26.200041 -3.885640 -5.394772 123.349253 -47.017813 -156.073365 25.377924 -24.512182 36.645998 9.665297 -51.448136 2.995287 -110.788294 81.421646 -104.380678 2.982023 -12.628406 -12.947694 -0.001168 0.001822 -0.000530 -16.066056 -50.883690 7.299585 84.967305 81.372722 80.186080 -9.599402 -8.451471 -0.263793 -0.000927 0.009511 -0.000421
-11.137407 127.083884 21.313345 177.339384 -31.041293 -3.826800 0.880612 15.083898 1.094329 0.067928 1.392870 0.090018 0.101147 2.356958 0.155422 0.777003 13.464569 0.952993 -2.322202 23.548853 -3.795056 -1.562235 -0.411716 -3.679652 4.098819 7.144035 -3.868858 -8.691007 -14.477220 -4.262360 -167.258324 -59.980006 -179.157847 -13.144078 -14.623815 -28.048711 1.057375 11.145835 1.410199 26.092608 -3.817242 -5.370969 123.229665 -47.045844 -156.013033 25.345078 -24.514946 36.722182 9.634958 -51.370182 3.008904 -110.806535 81.422989 -104.395860 2.982121 -12.625212 -12.947082 -0.000562 -0.002046 -0.000255 -16.084582 -50.811713 7.265683 84.861031 81.377573 80.097362 -9.555185 -8.432133 -0.296528 0.011138 0.007067 0.005058
-11.138926 127.087010 21.318973 177.367109 -31.102822 -3.834759 0.913868 15.091486 1.093293 0.071210 1.392605 0.089387 0.121151 2.344123 0.151392 0.794824 13.475079 0.954449 -2.324511 23.508280 -3.829446 -1.622455 -0.384212 -3.646031 4.103029 7.140533 -3.860765 -8.697539 -14.414422 -4.293550 -166.422494 -60.035279 -179.725458 -13.314171 -13.992138 -27.574841 1.091284 11.108798 1.432417 25.975081 -3.753610 -5.312603 123.068354 -47.054878 -155.920393 25.259051 -24.548699 36.764095 9.613649 -51.306738 3.014291 -110.822627 81.424071 -104.415185 2.990518 -12.611959 -12.946970 -0.000214 -0.002787 -0.000097 -16.099301 -50.757602 7.232147 84.855383 81.374423 80.091395 -9.525947 -8.419794 -0.309519 0.010175 0.004500 0.004620
-11.140679 127.089569 21.325754 177.390922 -31.160230 -3.839860 0.951944 15.091859 1.091971 0.044870 1.421520 0.093578 0.123870 2.343779 0.150951 0.858787 13.442648 0.945654 -2.352551 23.496444 -3.844984 -1.665292 -0.336847 -3.600637 4.060376 7.167806 -3.834710 -8.642657 -14.390153 -4.350084 -165.570412 -60.092784 179.689185 -13.468650 -13.319433 -27.101642 1.126802 11.078529 1.456066 25.845780 -3.687283 -5.303477 122.921214 -47.106009 -155.871128 25.215946 -24.552314 36.880973 9.605457 -51.245676 3.013472 -110.842690 81.418792 -104.432892 2.989139 -12.615661 -12.942959 0.000198 -0.001891 0.000090 -16.107988 -50.704116 7.200326 84.854414 81.366617 80.083466 -9.504361 -8.415802 -0.315662 0.007243 0.005008 0.003289
